HIERARCHY
ROOT Hips
{
	OFFSET	0.00	0.00	0.00
	CHANNELS 6 Xposition Yposition Zposition Zrotation Xrotation Yrotation
	JOINT Spine
	{
		OFFSET	 0.00	0.01	 0.00
		CHANNELS 3 Zrotation Xrotation Yrotation
		JOINT Spine1
		{
			OFFSET	 0.00	 2.45913012437421	 0.00
			CHANNELS 3 Zrotation Xrotation Yrotation
            JOINT Neck
            {
                OFFSET	 0.00	 2.48462964506057	 0.00
                CHANNELS 3 Zrotation Xrotation Yrotation
                JOINT Head
                {
                    OFFSET	 0.00	 0.927524780924562	 0.00
                    CHANNELS 3 Zrotation Xrotation Yrotation
                    End Site 
                    {
                        OFFSET	 0.00	 1.14999962169752	 0.00
                    }
                }
            }
			JOINT LeftShoulder
			{
				OFFSET	 0.00	 2.48462964506057	 0.00
				CHANNELS 3 Zrotation Xrotation Yrotation
				JOINT LeftUpArm
				{
					OFFSET	 0.00	 1.24881979654096	 0.00
					CHANNELS 3 Zrotation Xrotation Yrotation
					JOINT LeftForeArm
					{
						OFFSET	 0.00	2.59758046908119	 0.00
						CHANNELS 3 Zrotation Xrotation Yrotation
						JOINT LeftHand
						{
							OFFSET	 0.00	2.45542024364365	 0.00
							CHANNELS 3 Zrotation Xrotation Yrotation
							JOINT LeftHandThumb 
							{
								OFFSET	 0.00	0.00	 0.00
								CHANNELS 3 Zrotation Xrotation Yrotation
								End Site
								{
									OFFSET	 0.00	0.00	1.00000003353624
								}
							}
							JOINT L_Wrist_End 
							{
								OFFSET	 0.00	0.99999967115358	 0.00
								CHANNELS 3 Zrotation Xrotation Yrotation
								End Site 
								{
									OFFSET	 0.00	 0.00	 0.00
								}
							}
						}
					}
				}
			}
			JOINT RightShoulder
			{
				OFFSET	 0.00	 2.48462964506057	 0.00
				CHANNELS 3 Zrotation Xrotation Yrotation
				JOINT RightUpArm
				{
					OFFSET	 0.00	 1.24881979654096	 0.00
					CHANNELS 3 Zrotation Xrotation Yrotation
					JOINT RightForeArm
					{
						OFFSET	 0.00	2.59758046908119	 0.00
						CHANNELS 3 Zrotation Xrotation Yrotation
						JOINT RightHand
						{
							OFFSET	 0.00	2.45542024364365	 0.00
							CHANNELS 3 Zrotation Xrotation Yrotation
							JOINT RightHandThumb 
							{
								OFFSET	 0.00	0.00	 0.00
								CHANNELS 3 Zrotation Xrotation Yrotation
								End Site
								{
									OFFSET	 0.00	0.00	1.00000003353624
								}
							}
							JOINT R_Wrist_End 
							{
								OFFSET	 0.00	0.99999967115358	 0.00
								CHANNELS 3 Zrotation Xrotation Yrotation
								End Site 
								{
									OFFSET	 0.00	 0.00	 0.00
								}
							}
						}
					}
				}
			}
		}
	}
	JOINT LeftUpLeg
	{
		OFFSET	 1.2719394002717	 0.00	 0.00
		CHANNELS 3 Zrotation Xrotation Yrotation
		JOINT LeftLowLeg
		{
			OFFSET	 0.00	-4.3429100912261	 0.00
			CHANNELS 3 Zrotation Xrotation Yrotation
			JOINT LeftFoot
			{
				OFFSET	 0.00	-4.48767017425826	 0.00
				CHANNELS 3 Zrotation Xrotation Yrotation
				JOINT LeftToeBase
                {
                    OFFSET	 0.00	0.00	 1.51507020887566
                    CHANNELS 3 Zrotation Xrotation Yrotation
                    End Site 
                    {
                        OFFSET	 0.00	0.00	 0.75000010571191
                    }
                }
			}
		}
	}
	JOINT RightUpLeg
	{
		OFFSET	 -1.2719393604653	 0.00	 0.00
		CHANNELS 3 Zrotation Xrotation Yrotation
		JOINT RightLowLeg
		{
			OFFSET	 0.00	-4.3429100912261	 0.00
			CHANNELS 3 Zrotation Xrotation Yrotation
			JOINT RightFoot
			{
				OFFSET	 0.00	-4.48767017425826	 0.00
				CHANNELS 3 Zrotation Xrotation Yrotation
				JOINT RightToeBase
                {
                    OFFSET	 0.00	0.00	 1.51507020887566
                    CHANNELS 3 Zrotation Xrotation Yrotation
                    End Site 
                    {
                        OFFSET	 0.00	0.00	 0.749999965609858
                    }
                }   
			}
		}
	}
}
MOTION 
Frames:	15 
Frame Time: 0.02 
 0.44743900299072265 6.857919921875 9.352849731445312 -162.497 78.7246 878.298 2.47135 -7.57348 -0.0670799 2.56028 -12.2091 0.174797 -12.8581 74.6717 366.868 63.6763 -77.746 -309.537 -117.4824 -17.7788 -13.6742 18.5911 5.67466 -26.6021 0.0 10.9188 0.0 21.5423 -7.91171 21.7005 0.0 0.0 0.0 0.0 0.0 0.0 113.5516 -14.4101 4.86284 -9.65066 -4.70845 46.3165 0.0 24.9084 0.0 -17.7408 -11.4429 -35.5956 0.0 0.0 0.0 0.0 0.0 0.0 6.30288 -7.27565 8.41734 0.0 6.45161 0.0 -18.2943 0.68050003 5.92322 0.0 -29.5481 0.0 5.49555 -6.97945 3.9176 0.0 7.74006 0.0 15.9605 4.2300997 -17.7354 0.0 -32.7421 0.0 
  0.44442401885986327 6.857039794921875 9.354099731445313 -162.496 78.6857 878.242 2.28823 -7.55857 -0.0943799 2.61506 -11.9055 0.17056 -11.144 75.1111 365.137 64.6373 -77.326 -308.674 -117.5072 -18.1281 -14.1906 18.5609 4.65766 -26.3559 0.0 11.6929 0.0 21.6753 -7.96977 21.0676 0.0 0.0 0.0 0.0 0.0 0.0 113.6127 -14.7081 4.91037 -9.03666 -5.62535 46.5005 0.0 25.0517 0.0 -17.511 -11.2483 -35.5148 0.0 0.0 0.0 0.0 0.0 0.0 6.33997 -7.27817 8.43733 0.0 6.42456 0.0 -18.3068 0.7017002 5.96627 0.0 -29.5295 0.0 5.52934 -7.02417 3.89271 0.0 7.75341 0.0 15.9286 4.3149996 -17.6873 0.0 -32.7862 0.0 
  0.44216400146484375 6.855479736328125 9.355070190429688 -162.62 78.6165 878.211 2.08787 -7.55175 -0.0639534 2.74793 -11.6563 0.231519 -9.00702 75.5894 362.903 65.5769 -76.9301 -307.703 -117.4782 -18.4424 -14.4247 18.3732 3.42058 -26.6196 0.0 12.5984 0.0 21.8467 -8.0398 20.9422 0.0 0.0 0.0 0.0 0.0 0.0 113.6073 -15.0792 5.28244 -8.58873 -6.33458 46.592 0.0 24.923 0.0 -17.3595 -11.3609 -35.7828 0.0 0.0 0.0 0.0 0.0 0.0 6.36991 -7.28089 8.53464 0.0 6.38123 0.0 -18.3098 0.7025995 6.02931 0.0 -29.5245 0.0 5.5583 -7.08564 3.954 0.0 7.73625 0.0 15.928 4.3903 -17.6107 0.0 -32.7268 0.0 
  0.4410049819946289 6.85510009765625 9.3560400390625 -162.735 78.5193 878.183 1.94018 -7.5341 0.00445503 2.81524 -11.4752 0.325971 -6.19312 76.0497 359.941 66.5037 -76.4828 -306.788 -117.5396 -18.7504 -14.8491 18.2668 2.42029 -26.8957 0.0 13.328 0.0 21.9879 -8.08031 20.3455 0.0 0.0 0.0 0.0 0.0 0.0 113.6564 -15.3266 5.57026 -8.32938 -7.26044 46.9103 0.0 24.6719 0.0 -17.1568 -11.7017 -36.2817 0.0 0.0 0.0 0.0 0.0 0.0 6.40465 -7.33569 8.56929 0.0 6.37018 0.0 -18.3156 0.66969967 6.13499 0.0 -29.5105 0.0 5.58745 -7.16736 3.92682 0.0 7.68896 0.0 15.8903 4.5186996 -17.4831 0.0 -32.720802 0.0 
  0.4412939834594727 6.852449951171875 9.357080078125 -162.938 78.4278 878.18 1.82366 -7.56602 0.123987 2.88091 -11.2515 0.467375 -3.12062 76.4708 356.641 67.395 -76.1265 -305.948 -117.7639 -19.1429 -15.4394 18.2506 1.7911 -27.3169 0.0 13.7003 0.0 22.1162 -8.00097 19.5519 0.0 0.0 0.0 0.0 0.0 0.0 113.5449 -15.4026 5.69571 -7.92026 -8.52503 47.3148 0.0 24.5458 0.0 -17.1525 -11.9749 -36.4672 0.0 0.0 0.0 0.0 0.0 0.0 6.41611 -7.34317 8.71211 0.0 6.3194 0.0 -18.3209 0.6576996 6.20127 0.0 -29.4993 0.0 5.59369 -7.22698 3.95945 0.0 7.6172 0.0 15.8661 4.6450996 -17.3535 0.0 -32.7502 0.0 
  0.4425389862060547 6.850380249023438 9.358380126953126 -163.133 78.3432 878.2 1.81536 -7.56125 0.296945 2.81712 -11.0786 0.648845 -0.368911 76.8287 353.7 68.2818 -75.8321 -305.344 -117.8889 -19.5535 -16.0631 18.0061 1.54562 -28.1947 0.0 13.7632 0.0 22.8325 -8.16874 19.1037 0.0 0.0 0.0 0.0 0.0 0.0 113.423004 -15.6218 5.7725 -7.47639 -9.73159 47.696 0.0 24.5922 0.0 -17.4161 -12.7579 -36.5132 0.0 0.0 0.0 0.0 0.0 0.0 6.41716 -7.36256 8.8095 0.0 6.28279 0.0 -18.3059 0.65460014 6.28635 0.0 -29.503601 0.0 5.58889 -7.27581 3.92376 0.0 7.5286 0.0 15.8282 4.7955 -17.2113 0.0 -32.827103 0.0 
  0.44415199279785156 6.849229736328125 9.359559936523437 -163.307 78.2556 878.254 1.83047 -7.56443 0.408962 2.76984 -10.9231 0.760983 2.35115 77.1983 350.694 69.0237 -75.698 -304.805 -118.0878 -19.8786 -16.6557 17.9278 1.32293 -29.0921 0.0 13.3106 0.0 23.1333 -8.12259 18.8908 0.0 0.0 0.0 0.0 0.0 0.0 113.3647 -15.8523 5.94943 -7.29117 -10.6646 48.0396 0.0 24.4508 0.0 -17.4218 -13.4554 -37.138 0.0 0.0 0.0 0.0 0.0 0.0 6.41609 -7.41795 8.8224 0.0 6.27532 0.0 -18.3075 0.62940025 6.39036 0.0 -29.4542 0.0 5.58448 -7.32634 3.88747 0.0 7.43737 0.0 15.7793 4.9266996 -17.1346 0.0 -32.8069 0.0 
  0.44655498504638674 6.84677001953125 9.360570068359374 -163.573 78.1607 878.391 1.89507 -7.59879 0.520332 2.66642 -10.8115 0.865338 4.78605 77.5824 347.985 69.7677 -75.6418 -304.139 -118.2721 -20.1147 -17.069 17.9587 1.1491 -29.6712 0.0 12.3535 0.0 23.4986 -7.8736 18.697 0.0 0.0 0.0 0.0 0.0 0.0 113.4718 -16.1336 6.31377 -7.46276 -11.2941 48.3498 0.0 24.1422 0.0 -17.3446 -14.0393 -38.44 0.0 0.0 0.0 0.0 0.0 0.0 6.39578 -7.46639 8.90452 0.0 6.24505 0.0 -18.2915 0.63199997 6.44748 0.0 -29.4454 0.0 5.56423 -7.3861 3.92234 0.0 7.35488 0.0 15.7615 5.0182 -17.0872 0.0 -32.837402 0.0 
  0.44922599792480467 6.845900268554687 9.361589965820313 -163.744 78.0829 878.491 1.98896 -7.61137 0.560463 2.55965 -10.7115 0.888397 6.62516 77.8931 345.889 70.2062 -75.6847 -303.764 -118.5095 -20.288 -17.4768 18.0735 0.970005 -30.1999 0.0 11.3028 0.0 23.8394 -8.16165 18.4603 0.0 0.0 0.0 0.0 0.0 0.0 113.4186 -16.2369 6.47221 -7.42337 -11.955 48.6559 0.0 23.9239 0.0 -17.7248 -14.3813 -39.2134 0.0 0.0 0.0 0.0 0.0 0.0 6.37872 -7.51925 8.89025 0.0 6.22228 0.0 -18.2757 0.62580013 6.53072 0.0 -29.4112 0.0 5.54961 -7.4473 3.90653 0.0 7.30279 0.0 15.7449 5.0920897 -17.0515 0.0 -32.7916 0.0 
  0.45229999542236327 6.845079956054687 9.362680053710937 -163.931 78.0348 878.601 2.09386 -7.59729 0.571013 2.42501 -10.6309 0.878888 7.91415 78.0976 344.409 70.3285 -75.731 -303.7 -118.647 -20.4669 -18.1362 18.0044 0.828641 -30.8046 0.0 10.5451 0.0 23.9641 -8.7199 18.2402 0.0 0.0 0.0 0.0 0.0 0.0 113.2871 -16.2862 6.63552 -7.23774 -12.5018 49.098 0.0 23.836 0.0 -18.0111 -14.527 -39.1089 0.0 0.0 0.0 0.0 0.0 0.0 6.34968 -7.54199 8.969 0.0 6.19451 0.0 -18.2367 0.6651001 6.53994 0.0 -29.3928 0.0 5.52162 -7.49381 3.95113 0.0 7.27687 0.0 15.7422 5.14167 -17.0446 0.0 -32.7667 0.0 
  0.4556840133666992 6.844769897460938 9.363670043945312 -164.088 78.0164 878.689 2.2004 -7.52685 0.550709 2.32396 -10.6456 0.83859 8.10381 78.3285 344.137 70.1862 -75.8402 -303.955 -118.8 -20.6606 -18.4834 17.8769 0.625068 -31.655 0.0 10.013 0.0 24.1361 -9.12694 18.3309 0.0 0.0 0.0 0.0 0.0 0.0 113.252304 -16.3408 6.79765 -7.27873 -12.8104 49.3983 0.0 23.7701 0.0 -18.1895 -14.6624 -39.0396 0.0 0.0 0.0 0.0 0.0 0.0 6.31668 -7.55273 9.0543 0.0 6.18903 0.0 -18.2063 0.7055998 6.52358 0.0 -29.3877 0.0 5.49227 -7.52895 4.07326 0.0 7.28468 0.0 15.7681 5.1477604 -17.1127 0.0 -32.7599 0.0 
  0.45940101623535157 6.845029907226563 9.364199829101562 -164.193 78.0191 878.746 2.33546 -7.46031 0.506707 2.20512 -10.6698 0.768268 7.87847 78.5852 344.295 70.0795 -76.0138 -304.12 -118.8828 -20.7474 -18.7846 17.6415 0.368575 -32.295 0.0 9.63404 0.0 24.5634 -9.23802 18.8106 0.0 0.0 0.0 0.0 0.0 0.0 113.2763 -16.2826 6.79679 -7.42781 -13.0645 49.6987 0.0 23.698 0.0 -18.2455 -14.6557 -39.4209 0.0 0.0 0.0 0.0 0.0 0.0 6.28143 -7.56417 9.13659 0.0 6.21251 0.0 -18.2126 0.71850014 6.48967 0.0 -29.3662 0.0 5.4575 -7.55299 4.13549 0.0 7.30986 0.0 15.7846 5.1406803 -17.1297 0.0 -32.719803 0.0 
  0.463302001953125 6.845449829101563 9.364349975585938 -164.304 78.0502 878.788 2.47495 -7.40361 0.47096 2.06039 -10.6798 0.706105 7.77084 78.8315 344.334 69.7398 -76.1496 -304.386 -119.020004 -20.8461 -18.9588 17.4382 0.306536 -32.8141 0.0 9.27283 0.0 25.0402 -9.11321 19.0337 0.0 0.0 0.0 0.0 0.0 0.0 113.275696 -16.195 6.8058 -7.54415 -13.2205 49.5336 0.0 23.7349 0.0 -18.4546 -14.7944 -39.9877 0.0 0.0 0.0 0.0 0.0 0.0 6.23397 -7.54049 9.2115 0.0 6.22723 0.0 -18.1786 0.72700024 6.49087 0.0 -29.3684 0.0 5.41365 -7.56865 4.24226 0.0 7.36004 0.0 15.8171 5.1134396 -17.16 0.0 -32.7608 0.0 
  0.4674639892578125 6.847230224609375 9.364299926757813 -164.333 78.0947 878.781 2.59358 -7.3437 0.446313 1.94517 -10.7204 0.66023 7.59819 79.1246 344.481 69.2331 -76.2347 -304.865 -119.1937 -20.9084 -19.2475 17.3034 0.513983 -32.7449 0.0 8.92982 0.0 25.0268 -8.99367 19.0511 0.0 0.0 0.0 0.0 0.0 0.0 113.2193 -16.0919 6.79547 -7.6265 -13.3256 49.157 0.0 23.692 0.0 -18.4776 -14.6869 -39.9579 0.0 0.0 0.0 0.0 0.0 0.0 6.19038 -7.51572 9.24493 0.0 6.24465 0.0 -18.1507 0.7226 6.4983 0.0 -29.3762 0.0 5.37667 -7.56713 4.28548 0.0 7.39977 0.0 15.7977 5.1067 -17.1978 0.0 -32.7449 0.0 
  0.47084598541259765 6.849509887695312 9.36416015625 -164.361 78.1331 878.813 2.68014 -7.31547 0.421551 1.87888 -10.8197 0.620974 7.16395 79.5921 344.925 68.6325 -76.3389 -305.513 -119.2948 -20.8324 -19.1004 17.1548 0.638963 -32.7273 0.0 8.71988 0.0 24.6223 -9.01201 19.1946 0.0 0.0 0.0 0.0 0.0 0.0 113.1998 -16.0302 6.74097 -7.77242 -13.2117 49.0152 0.0 23.5987 0.0 -18.4704 -14.7121 -39.6283 0.0 0.0 0.0 0.0 0.0 0.0 6.15324 -7.51338 9.25866 0.0 6.27342 0.0 -18.1102 0.7258997 6.48617 0.0 -29.342701 0.0 5.34286 -7.55924 4.26134 0.0 7.41575 0.0 15.7804 5.09509 -17.2086 0.0 -32.7725 0.0 
